<?xml version="1.0" standalone="no"?>
<!DOCTYPE svg PUBLIC "-//W3C//DTD SVG 20010904//EN"
 "http://www.w3.org/TR/2001/REC-SVG-20010904/DTD/svg10.dtd">
<svg version="1.0" xmlns="http://www.w3.org/2000/svg"
 width="590.000000pt" height="590.000000pt" viewBox="0 0 590.000000 590.000000"
 preserveAspectRatio="xMidYMid meet">

<g transform="translate(0.000000,590.000000) scale(0.100000,-0.100000)"
fill="#000000" stroke="none">
<path d="M0 2950 l0 -2950 2950 0 2950 0 0 2950 0 2950 -2950 0 -2950 0 0
-2950z m3240 1222 c0 -5 -9 -35 -20 -68 -20 -56 -230 -702 -541 -1659 -77
-236 -151 -463 -164 -502 l-24 -73 511 0 511 0 -87 81 c-169 158 -260 329
-281 527 l-7 62 406 0 406 0 2 -421 c2 -231 1 -423 -1 -425 -2 -2 -342 -4
-755 -4 -602 0 -761 3 -802 14 -89 23 -193 85 -263 157 -146 146 -212 323
-213 564 0 182 -9 150 281 1044 119 367 133 432 108 494 -18 43 -78 76 -136
77 -22 0 -32 4 -28 13 2 6 13 38 23 70 l18 57 528 0 c290 0 528 -4 528 -8z"/>
</g>
</svg>
